<svg width="3333" height="3333" viewBox="0 0 3333 3333" fill="none" xmlns="http://www.w3.org/2000/svg">
<g clip-path="url(#clip0_3_16)">
<path d="M1667 0C2127 0 2544 187 2846 488C3148 790 3334 1206 3334 1667C3334 2127 3147 2544 2846 2846C2544 3148 2128 3334 1667 3334C1207 3334 790 3147 488 2846C186 2544 0 2128 0 1667C0 1207 187 790 488 488C790 186 1206 0 1667 0ZM1848 1137H2149V776H1848C1616 776 1427 965 1427 1197V1378H1186V1739H1427V2702H1788V1739H2089L2149 1378H1788V1197C1788 1164 1816 1137 1848 1137ZM2761 574C2481 294 2095 121 1668 121C1241 121 854 294 575 574C295 854 122 1240 122 1667C122 2094 295 2481 575 2760C855 3040 1241 3213 1668 3213C2095 3213 2482 3040 2761 2760C3041 2480 3214 2094 3214 1667C3214 1240 3041 853 2761 574Z" fill="white"/>
</g>
<defs>
<clipPath id="clip0_3_16">
<rect width="3333" height="3333" fill="white"/>
</clipPath>
</defs>
</svg>
