<svg width="3333" height="3333" viewBox="0 0 3333 3333" fill="none" xmlns="http://www.w3.org/2000/svg">
<g clip-path="url(#clip0_3_14)">
<path fill-rule="evenodd" clip-rule="evenodd" d="M1662 1174C1947 1174 2178 1405 2178 1690C2178 1975 1947 2206 1662 2206C1377 2206 1146 1975 1146 1690C1146 1405 1377 1174 1662 1174ZM1277 753H2057C2350 753 2589 990 2589 1278V2056C2589 2345 2350 2581 2057 2581H1277C984 2581 745 2345 745 2056V1278C745 989 985 753 1277 753ZM2161 1102C2207 1102 2245 1139 2245 1186C2245 1232 2208 1270 2161 1270C2115 1270 2077 1233 2077 1186C2077 1140 2114 1102 2161 1102ZM1341 902H1993C2238 902 2438 1101 2438 1345V2001C2438 2245 2238 2444 1993 2444H1341C1096 2444 896 2245 896 2001V1345C896 1101 1096 902 1341 902ZM1667 0C2127 0 2544 187 2846 488C3148 790 3334 1206 3334 1667C3334 2127 3147 2544 2846 2846C2544 3148 2128 3334 1667 3334C1207 3334 790 3147 488 2846C186 2544 0 2128 0 1667C0 1207 187 790 488 488C790 186 1206 0 1667 0ZM2760 573C2480 293 2094 120 1667 120C1240 120 853 293 574 573C294 853 121 1239 121 1666C121 2093 294 2480 574 2759C854 3039 1240 3212 1667 3212C2094 3212 2481 3039 2760 2759C3040 2479 3213 2093 3213 1666C3213 1239 3040 852 2760 573ZM1662 1347C1850 1347 2003 1500 2003 1688C2003 1876 1850 2029 1662 2029C1473 2029 1321 1876 1321 1688C1321 1500 1474 1347 1662 1347Z" fill="white"/>
</g>
<defs>
<clipPath id="clip0_3_14">
<rect width="3333" height="3333" fill="white"/>
</clipPath>
</defs>
</svg>
