<svg width="32768" height="32768" viewBox="0 0 32768 32768" fill="none" xmlns="http://www.w3.org/2000/svg">
<path fill-rule="evenodd" clip-rule="evenodd" d="M16384 0C25432.7 0 32768 7335.33 32768 16384C32768 25432.7 25432.7 32768 16384 32768C7335.33 32768 0 25432.7 0 16384C0 7335.33 7335.33 0 16384 0ZM24269.8 8965.8L21346.8 23703.4C21346.8 23703.4 20938 24725.4 19813.8 24234.6L13088.9 18940.6C13088.9 18940.6 20570.2 12215.7 20876.7 11929.6C21183.3 11643.4 21081.1 11582.2 21081.1 11582.2C21101.4 11234.7 20529.2 11582.2 20529.2 11582.2L10615.6 17877.8L6486.67 16487.8C6486.67 16487.8 5853.01 16262.9 5791.77 15772.5C5730.42 15281.7 6507.12 15016.1 6507.12 15016.1L22920.9 8577.4C22920.9 8577.4 24269.8 7984.63 24269.8 8965.8ZM15654.8 21046.3L12986.7 23478.8C12986.7 23478.8 12778.1 23637 12550 23537.9L13060.8 19019.3L15654.8 21046.3Z" fill="white"/>
</svg>
