<svg width="32768" height="32768" viewBox="0 0 32768 32768" fill="none" xmlns="http://www.w3.org/2000/svg">
<path d="M16384 0C20908.2 0 25004.3 1833.86 27969.2 4798.8C30934.1 7763.74 32768 11859.8 32768 16384C32768 20908.2 30934.1 25004.3 27969.2 27969.2C25004.3 30934.1 20908.2 32768 16384 32768C11859.8 32768 7763.74 30934.1 4798.8 27969.2C1833.86 25004.3 0 20908.2 0 16384C0 11859.8 1833.86 7763.74 4798.8 4798.8C7763.74 1833.86 11859.8 0 16384 0ZM18583.4 11784.6C19151.3 11905.7 19586.5 12121.8 19958.4 12470.7C20436.9 12923.2 20699.2 13470.9 20814.5 14257.9C20892.3 14770.9 20860.7 14972.8 20679 15140C20508.9 15295.6 20194.7 15301.4 20004.5 15154.4C19866.2 15050.6 19823 14941.1 19791.2 14644.1C19753.8 14249.2 19684.6 13972.5 19566.4 13715.9C19312.7 13171.1 18865.9 12888.6 18110.7 12796.4C17756.1 12753.2 17649.5 12712.8 17534.2 12577.4C17323.8 12326.5 17404.5 11920.2 17695.6 11770.2C17805.2 11715.5 17851.3 11709.7 18093.4 11724.1C18243.2 11732.8 18465.3 11758.7 18583.4 11784.6ZM17770.6 7518.47C18762.2 7642.43 19563.5 7881.7 20442.7 8311.19C21307.3 8734.98 21860.8 9135.57 22593 9864.88C23279 10553.8 23659.6 11075.6 24063.1 11885.5C24625.2 13015.4 24945.2 14358.6 24999.8 15837.4C25020.1 16341.8 25005.6 16454.3 24890.3 16598.4C24671.3 16878.1 24189.9 16831.9 24025.6 16517.8C23973.7 16414 23959.3 16324.7 23942.1 15921.1C23913.2 15301.4 23870 14900.7 23783.5 14422.2C23443.4 12545.6 22544 11046.8 21108.5 9971.54C19912.2 9072.26 18675.7 8634.02 17055.7 8538.86C16508.1 8507.21 16412.9 8486.96 16288.9 8391.9C16058.3 8210.24 16046.8 7783.7 16268.7 7584.83C16404.2 7460.87 16499.3 7443.56 16969.2 7457.92C17214.2 7466.57 17574.5 7495.37 17770.5 7518.47V7518.37L17770.6 7518.47ZM11181.2 7829.8C11282.1 7864.4 11437.7 7945.11 11527.1 8002.72C12074.9 8365.85 13599.6 10317.4 14098.3 11291.7C14383.6 11848 14478.8 12260.2 14389.5 12565.7C14297.2 12894.3 14144.4 13067.2 13461.2 13617.8C13187.5 13839.8 12930.9 14067.5 12890.6 14128C12786.8 14277.9 12703.1 14572 12703.1 14779.5C12706.1 15260.9 13017.3 16134.2 13426.7 16805.9C13743.8 17327.6 14311.7 17996.4 14873.7 18509.5C15533.8 19114.8 16116 19527 16773.3 19852.7C17617.8 20273.6 18133.9 20380.2 18511.4 20204.4C18606.5 20161.2 18707.4 20103.5 18739.2 20077.7C18768 20051.6 18989.8 19780.7 19232.1 19481C19699 18892.9 19805.6 18797.8 20125.6 18688.2C20532.1 18549.9 20947.2 18587.3 21365.1 18800.6C21682.2 18965 22373.9 19394.5 22820.7 19705.7C23408.7 20117.9 24665.5 21144.1 24835.6 21348.8C25135.4 21717.8 25187.3 22190.4 24985.5 22712.2C24772.2 23262.7 23942 24294.7 23362.6 24735.7C22837.9 25133.5 22466.2 25286.2 21976.1 25309.3C21572.6 25329.4 21405.4 25294.8 20889.4 25081.5C16842.3 23412.5 13611 20922.1 11045.6 17500.5C9705.24 15713.4 8684.85 13860 7987.18 11937.2C7580.8 10816 7560.64 10328.8 7894.98 9755.18C8039.09 9513.06 8653.09 8913.5 9099.88 8579.17C9843.55 8025.72 10186.6 7821.05 10460.5 7763.44C10647.9 7723.04 10973.6 7754.79 11181.1 7829.8H11181.2ZM17969.4 9608.31C19719.2 9864.79 21074 10677.8 21961.8 11998C22460.5 12741.6 22771.7 13615.1 22878.3 14551.8C22915.8 14894.9 22915.8 15520.4 22875.5 15624.2C22837.9 15722.2 22716.9 15854.7 22613.1 15909.6C22500.8 15967.2 22261.6 15961.5 22129 15892.3C21907 15779.9 21840.6 15601.2 21840.6 15117C21840.6 14370.3 21647.5 13583.4 21313.1 12972.4C20932.6 12274.8 20379.3 11698.3 19704.8 11297.6C19125.4 10951.6 18269.3 10695.2 17488.1 10631.7C17205.5 10608.7 17049.9 10551 16943.3 10427.1C16779 10239.7 16761.6 9986.09 16900 9775.63C17049.9 9542.15 17280.4 9504.7 17969.4 9608.41V9608.31ZM26866 5902.06C24183.6 3219.65 20477.6 1560.47 16384.1 1560.47C12290.5 1560.47 8584.58 3219.65 5902.16 5902.06C3219.74 8584.48 1560.57 12290.5 1560.57 16384C1560.57 20477.6 3219.74 24183.5 5902.16 26865.9C8584.58 29548.4 12290.6 31207.5 16384.1 31207.5C20477.7 31207.5 24183.6 29548.4 26866 26865.9C29548.5 24183.5 31207.6 20477.5 31207.6 16384C31207.6 12290.4 29548.5 8584.48 26866 5902.06Z" fill="white"/>
</svg>
